<?xml version="1.0" encoding="UTF-8" standalone="no"?>
<svg width="32px" height="192px" version="1.1" xmlns="http://www.w3.org/2000/svg" xmlns:xlink="http://www.w3.org/1999/xlink" xmlns:sketch="http://www.bohemiancoding.com/sketch/ns">
    <title>Fotorama sprite</title>
    <description>Created with Sketch (http://www.bohemiancoding.com/sketch)</description>
    <defs></defs>
    <g id="Page 1" fill="rgb(223,223,223)" fill-rule="evenodd">
        <g id="cancel fullscreen" stroke="rgb(0,0,0)" stroke-width="1" stroke-opacity="0.1" fill-opacity="0.899999976" fill="rgb(254,255,255)">
            <path d="M16.9932861,168 C16.993286,168 24,167.991699 24,167.991699 C24,167.991699 24,175 24,175 C24,175 21.4932859,172.491699 21.4932861,172.491699 C21.4932863,172.491699 19.7078066,174.287931 19.7078066,174.287931 C19.3168958,174.681196 18.6870327,174.6875 18.2881806,174.289243 L17.7088287,173.710757 C17.3157017,173.318217 17.3131645,172.682322 17.7056648,172.287931 C17.7056648,172.287931 19.4932861,170.491699 19.4932861,170.491699 C19.4932861,170.491699 16.9932863,168 16.9932861,168 Z M16.9932861,168" id="Path 1" transform="translate(260.496643, 67.4958496) rotate(-180) translate(-260.496643, -67.4958496)"></path>
            <path d="M8,177.008301 C7.99999984,177.008301 15.0067139,177 15.0067139,177 C15.0067139,177 15.0067138,184.008301 15.0067139,184.008301 C15.0067138,184.008301 12.4999998,181.5 12.5,181.5 C12.5000001,181.5 10.7145204,183.296232 10.7145204,183.296232 C10.3236097,183.689497 9.69374657,183.695801 9.29489449,183.297544 L8.71554252,182.719057 C8.32241554,182.326517 8.31987833,181.690623 8.7123787,181.296232 C8.7123787,181.296232 10.5,179.5 10.5,179.5 C10.5,179.5 8.00000016,177.008301 8,177.008301 Z M8,177.008301" id="Path 1"></path>
        </g>
        <g id="request fullscreen" stroke="rgb(0,0,0)" stroke-width="1" stroke-opacity="0.1" fill-opacity="0.899999976" fill="rgb(254,255,255)">
            <path d="M16.9932861,136 C16.993286,136 24,135.991699 24,135.991699 C24,135.991699 24,143 24,143 C24,143 21.4932859,140.491699 21.4932861,140.491699 C21.4932863,140.491699 19.7078066,142.287931 19.7078066,142.287931 C19.3168958,142.681196 18.6870327,142.6875 18.2881806,142.289243 L17.7088287,141.710757 C17.3157017,141.318217 17.3131645,140.682322 17.7056648,140.287931 C17.7056648,140.287931 19.4932861,138.491699 19.4932861,138.491699 C19.4932861,138.491699 16.9932863,136 16.9932861,136 Z M16.9932861,136" id="Path 1"></path>
            <path d="M8,145.008301 C7.99999984,145.008301 15.0067139,145 15.0067139,145 C15.0067139,145 15.0067138,152.008301 15.0067139,152.008301 C15.0067138,152.008301 12.4999998,149.5 12.5,149.5 C12.5000001,149.5 10.7145204,151.296232 10.7145204,151.296232 C10.3236097,151.689497 9.69374657,151.695801 9.29489449,151.297544 L8.71554252,150.719057 C8.32241554,150.326517 8.31987833,149.690623 8.7123787,149.296232 C8.7123787,149.296232 10.5,147.5 10.5,147.5 C10.5,147.5 8.00000016,145.008301 8,145.008301 Z M8,145.008301" id="Path 1" transform="translate(251.503357, 76.5041504) rotate(-180) translate(-251.503357, -76.5041504)"></path>
        </g>
        <path d="M16,104 L24,120 L8,120 L16,104 Z M16,104" id="left arrow" stroke="rgb(0,0,0)" stroke-width="1" stroke-opacity="0.1" fill-opacity="0.899999976" fill="rgb(254,255,255)" transform="translate(16, 112) rotate(-90) translate(-16, -112)"></path>
        <path d="M16,72 L24,88 L8,88 L16,72 Z M16,72" id="bottom arrow" stroke="rgb(0,0,0)" stroke-width="1" stroke-opacity="0.1" fill-opacity="0.899999976" fill="rgb(254,255,255)" transform="translate(16, 80) rotate(-180) translate(-16, -80)"></path>
        <path d="M16,40 L24,56 L8,56 L16,40 Z M16,40" id="right arrow" stroke="rgb(0,0,0)" stroke-width="1" stroke-opacity="0.1" fill-opacity="0.899999976" fill="rgb(254,255,255)" transform="translate(16, 48) rotate(-270) translate(-16, -48)"></path>
        <path d="M16,8 L24,24 L8,24 L16,8 Z M16,8" id="up arrow" stroke="rgb(0,0,0)" stroke-width="1" stroke-opacity="0.1" fill-opacity="0.899999976" fill="rgb(254,255,255)"></path>
    </g>
</svg>